<svg xmlns="http://www.w3.org/2000/svg" width="1200" height="1200" viewBox="0 0 1200 1200" version="1.1"><path d="M 573.821 51.065 C 469.642 55.798, 366.519 93.480, 283 157.334 C 255.556 178.315, 222.662 209.295, 201.596 234 C 138.885 307.542, 97.964 394.748, 82.015 488.834 C 74.034 535.914, 72.899 593.008, 78.999 640.482 C 96.496 776.640, 165.687 899.349, 273.500 985.425 C 279.550 990.256, 284.837 994.795, 285.248 995.512 C 285.698 996.296, 278.192 1014.495, 266.422 1041.158 C 255.655 1065.546, 241.086 1098.550, 234.046 1114.500 C 227.005 1130.450, 220.935 1144.513, 220.555 1145.750 L 219.865 1148 598.865 1148 L 977.866 1148 970.344 1130.750 C 956.323 1098.592, 914.292 1000.513, 913.616 998.374 C 913.043 996.562, 914.609 994.940, 924.222 987.385 C 958.103 960.757, 993.147 924.954, 1019.145 890.406 C 1101.850 780.505, 1137.845 645.956, 1120.914 510 C 1104.698 379.791, 1039.834 260.543, 938.500 174.649 C 877.139 122.637, 806.990 86.525, 728.261 66.419 C 693.077 57.433, 662.239 52.887, 623.839 51.023 C 601.608 49.944, 598.432 49.947, 573.821 51.065 M 556.500 76.518 C 473.335 84.132, 395.889 110.867, 327.046 155.728 C 279.021 187.023, 232.375 230.824, 198.479 276.454 C 165.640 320.661, 139.518 371.226, 123.182 422.207 C 90.649 523.740, 91.436 634.918, 125.396 734.544 C 151.504 811.136, 193.394 877.310, 251.658 934 C 267.863 949.767, 294.458 972.347, 296.157 971.781 C 297.125 971.458, 301.239 962.733, 311.969 938.250 L 318.215 924 375.894 924 L 433.573 924 448.286 949.416 C 456.378 963.395, 463.272 975.545, 463.606 976.416 C 464.138 977.801, 467.265 978, 488.525 978 L 512.836 978 527.697 951.250 L 542.558 924.500 598.529 924.537 C 629.313 924.558, 655.625 924.894, 657 925.285 C 658.992 925.851, 661.934 930.419, 671.468 947.748 C 678.051 959.712, 684.572 971.413, 685.961 973.750 L 688.485 978 712.031 978 L 735.577 978 738.749 972.750 C 740.494 969.862, 747.309 957.825, 753.893 946 L 765.865 924.500 823.493 924.242 L 881.122 923.984 885.251 932.742 C 887.522 937.559, 892.128 948.248, 895.485 956.495 C 899.267 965.782, 902.181 971.604, 903.141 971.789 C 906.451 972.426, 936.572 946.342, 958.500 923.848 C 1074.270 805.092, 1123.567 638.817, 1090.981 477 C 1082.201 433.403, 1070.393 398.348, 1051.050 358.454 C 1025.308 305.365, 995.493 263.415, 954.039 221.961 C 869.042 136.965, 762.111 87.061, 642.341 76.496 C 621.841 74.687, 576.371 74.699, 556.500 76.518 M 565.951 105.737 C 563.476 108.357, 560.392 111.716, 559.096 113.202 L 556.741 115.904 569.013 128.933 C 575.762 136.098, 581.909 142.853, 582.672 143.943 C 583.960 145.782, 583.101 146.909, 570.736 159.608 L 557.412 173.291 553.780 172.092 C 551.181 171.235, 546.807 167.333, 538.411 158.384 L 526.674 145.874 519.337 153.162 C 515.302 157.170, 512 160.905, 512 161.461 C 512 162.017, 517.573 168.103, 524.384 174.986 C 531.342 182.018, 537.023 188.616, 537.352 190.047 C 537.863 192.274, 536.403 194.112, 525.718 204.697 C 518.998 211.354, 512.442 217.115, 511.148 217.500 C 509.110 218.106, 507.096 216.518, 496.062 205.600 C 488.572 198.189, 482.540 193.008, 481.414 193.019 C 480.361 193.030, 476.427 195.801, 472.670 199.177 L 465.841 205.317 480.662 220.162 L 495.483 235.008 480.288 250.203 L 465.094 265.398 450.890 250.632 L 436.686 235.865 429.843 242.656 C 426.079 246.391, 423 250.124, 423 250.953 C 423 251.781, 459.279 288.757, 503.621 333.121 L 584.241 413.783 582.440 416.832 C 581.450 418.508, 572.396 428.115, 562.321 438.179 L 544.002 456.477 529.001 441.501 L 514 426.525 528.508 411.992 L 543.017 397.459 536.758 391.292 C 527.164 381.838, 527.712 381.710, 512.514 396.965 C 505.372 404.134, 499.193 410, 498.783 410 C 497.612 410, 484.679 397.518, 476.839 388.822 L 469.722 380.927 483.361 367.069 C 490.862 359.448, 497 352.837, 497 352.379 C 497 351.922, 493.819 348.345, 489.931 344.431 L 482.862 337.314 470.681 349.481 C 463.981 356.172, 457.229 362.475, 455.676 363.487 L 452.853 365.326 438.926 351.427 C 431.267 343.782, 425 337.189, 425 336.775 C 425 336.362, 431.075 329.778, 438.500 322.145 C 445.925 314.512, 452 307.848, 452 307.337 C 452 306.251, 438.528 294, 437.334 294 C 436.889 294, 430.337 300.177, 422.773 307.726 L 409.021 321.452 403.260 315.985 C 400.092 312.977, 393.335 306.469, 388.245 301.523 L 378.989 292.529 372.352 299.166 L 365.715 305.803 367.998 309.652 C 369.254 311.768, 405.878 349.161, 449.385 392.746 L 528.488 471.993 509.004 491.496 C 494.091 506.424, 488.933 511, 487.023 511 C 485.150 511, 481.092 507.572, 470.778 497.279 L 457.031 483.557 470.515 469.949 C 478.550 461.840, 484 455.553, 484 454.393 C 484 453.316, 480.956 449.426, 477.189 445.687 L 470.377 438.928 456.045 453.558 L 441.713 468.189 426.857 453.357 L 412 438.525 426.726 423.774 C 439.411 411.067, 441.247 408.838, 439.976 407.687 C 439.164 406.952, 435.701 403.742, 432.280 400.552 L 426.061 394.754 411.280 408.838 L 396.500 422.923 381.648 408.105 L 366.796 393.288 380.898 379.494 C 388.654 371.907, 395 365.264, 395 364.731 C 395 364.199, 391.864 360.554, 388.032 356.632 L 381.064 349.500 367.769 362.750 C 357.892 372.593, 353.837 376, 352 376 C 350.169 376, 346.241 372.720, 336.845 363.345 C 324.183 350.712, 324.157 350.692, 321.150 351.938 C 319.494 352.624, 315.870 355.794, 313.097 358.982 L 308.056 364.778 361.278 417.629 C 390.550 446.698, 428.824 484.660, 446.330 501.990 C 463.837 519.321, 479.474 535.381, 481.080 537.680 L 484 541.860 484 712.811 L 484 883.762 481.461 890.508 C 480.064 894.219, 479.052 897.362, 479.211 897.494 C 479.370 897.626, 485.647 898.041, 493.160 898.417 L 506.819 899.100 504.410 891.512 L 502 883.924 502 705.612 L 502 527.300 507.842 522.219 L 513.683 517.138 514.340 541.819 C 514.700 555.394, 514.997 637.859, 514.998 725.075 L 515 883.650 512.500 891 C 511.125 895.043, 510 898.496, 510 898.675 C 510 898.854, 516.065 899, 523.479 899 L 536.957 899 534.479 892.129 L 532 885.258 532 691.237 L 532 497.215 538.250 491.429 L 544.500 485.643 544.752 686.056 C 545.019 897.542, 545.192 887.061, 541.247 897.750 C 540.885 898.732, 547.003 899, 569.769 899 L 598.752 899 596.376 892.455 L 594 885.909 594 660.491 L 594 435.072 597.705 432.554 L 601.410 430.037 603.705 432.193 L 606 434.349 606 659.927 C 606 879.758, 605.951 885.678, 604.071 892.253 L 602.141 899 630.590 899 L 659.038 899 658.367 896.250 C 657.997 894.737, 657.089 891.756, 656.348 889.624 C 655.239 886.437, 655 857.489, 655.001 726.624 C 655.002 639.106, 655.301 548.912, 655.665 526.193 L 656.327 484.886 662.164 490.662 L 668 496.437 668 690.044 L 668 883.650 665.604 890.693 L 663.209 897.737 669.251 898.368 C 677.538 899.235, 690 899.163, 690 898.250 C 690 897.837, 688.882 893.900, 687.515 889.500 L 685.030 881.500 685.015 699.250 C 685.007 599.013, 685.337 517.003, 685.750 517.007 C 686.163 517.012, 689.087 519.073, 692.250 521.588 L 698 526.162 697.987 705.331 C 697.974 881.300, 697.939 884.613, 695.987 890.839 C 694.894 894.326, 694 897.588, 694 898.089 C 694 899.162, 699.280 899.242, 711.744 898.358 L 720.794 897.715 718.897 892.201 C 717.063 886.870, 717 880.954, 717 713.591 L 717 540.496 804.500 453 C 852.625 404.877, 892 365.065, 892 364.527 C 892 363.990, 888.996 360.523, 885.324 356.823 L 878.648 350.095 875.762 351.797 C 874.174 352.734, 868.401 358.302, 862.932 364.172 C 848.879 379.254, 850.263 379.312, 832.901 362.907 L 818.863 349.642 812.008 357.071 L 805.153 364.500 819.314 378.750 L 833.474 393 819 407.500 C 811.039 415.475, 804.103 422, 803.587 422 C 803.071 422, 796.698 416.150, 789.425 409 C 782.153 401.850, 775.533 396, 774.715 396 C 773.897 396, 770.148 398.861, 766.385 402.357 L 759.541 408.714 773.817 423.556 L 788.094 438.398 773.162 453.330 L 758.231 468.261 744.486 454.130 C 736.926 446.359, 730.391 440, 729.964 440 C 729.537 440, 725.883 443.119, 721.844 446.931 L 714.500 453.861 727.229 466.681 C 736.200 475.715, 740.136 480.398, 740.562 482.541 C 741.123 485.365, 740.244 486.541, 728.269 498.990 C 715.385 512.383, 715.369 512.395, 712.389 511.161 C 710.748 510.481, 700.880 501.391, 690.459 490.959 L 671.512 471.992 753.767 389.733 L 836.023 307.473 828.588 300.087 L 821.152 292.701 806.530 306.601 C 798.487 314.245, 791.558 320.623, 791.132 320.774 C 790.706 320.924, 784.866 315.418, 778.154 308.537 C 770.882 301.081, 764.866 295.753, 763.265 295.352 C 760.876 294.752, 759.882 295.444, 754.308 301.589 L 748.039 308.500 761.019 321.513 C 770.481 330.999, 774 335.181, 774 336.941 C 774 338.701, 770.356 343.026, 760.537 352.919 L 747.074 366.484 732.501 352.036 L 717.929 337.587 710.269 345.247 L 702.609 352.907 717.055 366.875 L 731.500 380.843 717.013 395.421 C 709.045 403.440, 702.137 410, 701.662 410 C 701.187 410, 694.712 404.150, 687.273 397 C 679.834 389.850, 673.201 384, 672.532 384 C 671.089 384, 659 396.371, 659 397.848 C 659 398.410, 665.168 405.243, 672.707 413.032 L 686.414 427.195 671.652 441.771 L 656.891 456.347 648.195 447.927 C 624.169 424.663, 616 416.443, 616 415.530 C 616 414.980, 651.952 378.523, 695.894 334.515 C 739.836 290.507, 776.331 253.432, 776.995 252.127 C 778.116 249.923, 777.715 249.263, 771.371 242.870 L 764.539 235.985 749.885 250.615 L 735.231 265.244 720.865 250.522 C 712.964 242.425, 706.366 235.442, 706.202 235.006 C 706.038 234.569, 712.225 227.693, 719.950 219.727 L 733.996 205.242 726.489 198.523 L 718.982 191.804 704.522 205.496 C 696.570 213.026, 689.705 219.033, 689.267 218.844 C 687.300 217.994, 662 191.152, 662 189.915 C 662 189.152, 667.580 182.897, 674.400 176.014 C 681.221 169.131, 687.078 162.560, 687.417 161.410 C 687.912 159.731, 686.637 158.080, 680.931 153.009 L 673.830 146.698 660.530 159.970 C 648.276 172.198, 647.027 173.175, 644.656 172.372 C 643.241 171.892, 636.224 165.699, 629.064 158.610 L 616.045 145.720 620.950 140.110 C 623.648 137.024, 629.937 130.459, 634.927 125.521 C 639.917 120.582, 644 116.255, 644 115.904 C 644 115.553, 640.530 112.269, 636.289 108.607 L 628.577 101.948 614.288 116.211 L 600 130.475 585.225 115.724 L 570.450 100.974 565.951 105.737 M 541.502 218.144 C 510.023 249.690, 483.437 276.803, 482.423 278.396 L 480.578 281.293 540.039 340.102 C 572.743 372.447, 599.873 398.931, 600.329 398.955 C 601.364 399.011, 709.709 291.275, 715.263 284.666 L 719.326 279.833 660.913 221.355 C 628.786 189.192, 601.653 162.407, 600.618 161.833 C 598.971 160.919, 591.559 167.980, 541.502 218.144 M 599.243 198 C 598.684 199.375, 594.693 211.406, 590.374 224.735 L 582.522 248.971 553.846 249.235 L 525.170 249.500 548.032 266 C 560.606 275.075, 570.908 282.950, 570.926 283.500 C 570.943 284.050, 567.156 296.177, 562.511 310.450 C 557.866 324.722, 554.196 336.530, 554.356 336.689 C 554.515 336.849, 564.880 329.536, 577.389 320.439 L 600.132 303.898 622.776 320.406 C 635.230 329.485, 645.581 336.753, 645.778 336.556 C 645.975 336.359, 642.283 324.406, 637.574 309.994 C 632.865 295.582, 629.245 283.413, 629.529 282.952 C 629.814 282.492, 640.161 274.777, 652.523 265.807 L 675 249.500 646.284 249 L 617.569 248.500 608.914 222 C 601.374 198.917, 600.127 195.822, 599.243 198 M 569.750 461.377 L 564 469.251 564 678.447 C 564 867.259, 564.155 888.100, 565.594 892.322 C 566.471 894.895, 567.483 896.997, 567.844 896.993 C 568.205 896.990, 570.189 893.886, 572.252 890.096 L 576.005 883.206 575.752 668.355 L 575.500 453.503 569.750 461.377 M 625.049 670.250 L 625.097 885.500 628.463 892 C 630.573 896.076, 632.019 897.941, 632.341 897 C 632.623 896.175, 633.848 888.075, 635.064 879 L 637.275 862.500 636.720 663.618 L 636.165 464.736 631.370 459.868 C 628.733 457.191, 626.221 455, 625.788 455 C 625.354 455, 625.022 551.862, 625.049 670.250 M 411.132 589.750 C 404.525 596.763, 392.094 610.825, 383.509 621 L 367.899 639.500 407.200 640.074 C 428.815 640.389, 446.613 640.727, 446.750 640.824 C 446.887 640.921, 447 643.700, 447 647 L 447 653 402.691 653 C 368.740 653, 358.019 653.292, 356.827 654.250 C 352.608 657.640, 313 712.719, 313 715.196 C 313 715.638, 343.150 716, 380 716 L 447 716 447 722.500 L 447 729 375.101 729 L 303.203 729 295.276 741.250 C 284.590 757.766, 265 790.540, 265 791.902 C 265 792.691, 290.613 793, 356.048 793 L 447.095 793 446.798 799.250 L 446.500 805.500 351.710 805.755 L 256.920 806.010 251.365 817.755 C 239.731 842.355, 233.763 856.930, 229.665 870.750 L 228.108 876 346.054 876 L 464 876 464 867.500 L 464 859 358 859 C 299.700 859, 252 858.802, 252 858.560 C 252 856.673, 258.238 841.536, 262.636 832.750 L 268.017 822 366.008 822 L 464 822 464 799.631 L 464 777.262 460.250 776.642 C 458.188 776.301, 419.727 776.017, 374.781 776.011 L 293.063 776 296.701 769.750 C 298.702 766.313, 302.974 759.563, 306.195 754.750 L 312.052 746 388.026 746 L 464 746 464 723.519 L 464 701.038 461.750 700.481 C 460.512 700.174, 433.512 700.053, 401.750 700.212 C 369.987 700.370, 344 700.251, 344 699.946 C 344 698.813, 350.333 689.464, 357.589 679.882 L 365.073 670 414.537 670 L 464 670 464 647 L 464 624 435 624 L 406 624 406.024 621.750 C 406.039 620.306, 410.125 614.984, 417.433 606.893 C 426.249 597.132, 429.546 594.141, 432.035 593.643 C 433.803 593.289, 441.719 593, 449.625 593 L 464 593 464 585 L 464 577 443.573 577 L 423.146 577 411.132 589.750 M 736 585 C 736 592.622, 736.106 593.001, 738.250 593.026 C 765.793 593.342, 769.792 593.579, 771.523 595 C 775.474 598.244, 796 621.468, 796 622.696 C 796 623.739, 789.997 624, 765.981 624 L 735.962 624 736.231 646.750 L 736.500 669.500 786.174 670 L 835.848 670.500 843.981 681.474 C 853.460 694.264, 856.440 698.894, 855.682 699.652 C 855.381 699.952, 828.330 700.190, 795.568 700.180 L 736 700.162 736 723.075 L 736 745.988 812.637 746.244 L 889.274 746.500 895.267 756 C 898.562 761.225, 902.593 767.862, 904.225 770.750 L 907.191 776 826.235 776 C 781.709 776, 743.191 776.286, 740.640 776.636 L 736 777.272 736 799.636 C 736 820.225, 736.139 822.009, 737.750 822.115 C 738.712 822.178, 781.575 822.172, 833 822.101 C 884.425 822.030, 928.125 822.232, 930.110 822.550 C 933.546 823.101, 933.905 823.549, 937.537 831.814 C 946.122 851.352, 949 858.056, 949 858.516 C 949 858.782, 901.075 859, 842.500 859 L 736 859 736 867.500 L 736 876 854.480 876 L 972.959 876 969.340 865.750 C 964.561 852.217, 955.310 830.580, 948.483 816.966 L 942.983 806 847.992 806 L 753 806 753 800.142 L 753 794.285 759.147 793.642 C 762.527 793.289, 803.508 793, 850.214 793 L 935.135 793 934.470 790.750 C 933.527 787.557, 923.688 770.661, 909.721 748.250 L 897.724 729 825.362 729 L 753 729 753 722.500 L 753 716 820.500 716 C 857.625 716, 888 715.728, 888 715.396 C 888 714.449, 875.836 697.451, 858.562 674.260 L 842.741 653.020 798.121 652.760 L 753.500 652.500 753.180 648.595 C 753.005 646.448, 753.124 643.640, 753.447 642.357 L 754.032 640.023 793.200 639.762 L 832.367 639.500 822.173 627.256 C 811.048 613.895, 799.376 600.615, 786.129 586.250 L 777.600 577 756.800 577 L 736 577 736 585 M 335.619 949.868 C 332.982 950.446, 332.166 951.858, 326.002 966.500 C 322.298 975.300, 305.927 1013.733, 289.623 1051.906 C 273.319 1090.080, 260.134 1121.468, 260.324 1121.658 C 260.514 1121.848, 413.484 1121.890, 600.257 1121.751 L 939.843 1121.500 934.300 1108.500 C 931.250 1101.350, 916.968 1068.500, 902.560 1035.500 C 888.153 1002.500, 873.956 969.816, 871.012 962.869 L 865.658 950.238 860.579 949.628 C 857.786 949.292, 839.046 949.013, 818.935 949.009 L 782.370 949 767.435 975.993 L 752.500 1002.986 712.102 1002.743 L 671.704 1002.500 656.744 975.739 L 641.783 948.978 600.336 949.239 L 558.888 949.500 544.150 976 L 529.412 1002.500 488.397 1002.761 L 447.382 1003.022 432.441 976.027 L 417.500 949.032 378 949.134 C 356.275 949.191, 337.204 949.521, 335.619 949.868 M 452.750 1023.898 C 449.394 1029.873, 449.389 1030, 452.489 1030 C 454.075 1030, 457.071 1028.128, 460.739 1024.847 C 463.908 1022.013, 466.688 1019.538, 466.917 1019.347 C 467.146 1019.156, 464.671 1019, 461.417 1019.001 L 455.500 1019.002 452.750 1023.898 M 790.750 1024.478 C 788.688 1027.449, 787 1030.132, 787 1030.440 C 787 1030.748, 788.544 1031, 790.432 1031 C 793.140 1031, 794.337 1030.336, 796.105 1027.852 L 798.347 1024.704 801.159 1027.852 C 803.806 1030.814, 808.540 1032.127, 810.285 1030.382 C 810.625 1030.042, 809.012 1027.367, 806.702 1024.438 C 802.887 1019.602, 802.132 1019.110, 798.500 1019.094 C 794.783 1019.077, 794.235 1019.457, 790.750 1024.478 M 318.375 1039.125 C 318.719 1040.844, 319 1043.094, 319 1044.125 C 319 1045.811, 319.856 1046, 327.500 1046 L 336 1046 336 1071.500 L 336 1097 341.500 1097 L 347 1097 347 1071.500 L 347 1046 356 1046 L 365 1046 365 1041.631 C 365 1037.359, 364.917 1037.248, 361.250 1036.642 C 359.188 1036.301, 348.556 1036.017, 337.625 1036.011 L 317.750 1036 318.375 1039.125 M 373 1066.500 L 373 1097 378 1097 L 383 1097 383.009 1089.250 C 383.013 1084.987, 383.301 1079.138, 383.648 1076.250 L 384.279 1071 396.139 1071 L 408 1071 408 1084 L 408 1097 413 1097 L 418 1097 418 1080.158 C 418 1070.895, 418.295 1057.170, 418.655 1049.658 L 419.310 1036 413.155 1036 L 407 1036 407 1048 L 407 1060 395.500 1060 L 384 1060 384 1051.125 C 384 1046.244, 383.719 1040.844, 383.375 1039.125 C 382.778 1036.138, 382.535 1036, 377.875 1036 L 373 1036 373 1066.500 M 438.664 1064.500 C 432.928 1079.900, 428 1093.513, 427.712 1094.750 C 427.215 1096.882, 427.487 1097, 432.897 1097 L 438.606 1097 440.861 1090 L 443.115 1083 455.400 1083 L 467.684 1083 470.430 1090 L 473.177 1097 478.588 1097 C 481.565 1097, 484 1096.832, 484 1096.628 C 484 1095.033, 477.631 1077.837, 470.249 1059.500 L 461.392 1037.500 455.242 1037 L 449.092 1036.500 438.664 1064.500 M 492 1066.500 L 492 1097 496.864 1097 L 501.728 1097 502.364 1092.360 C 503.186 1086.360, 503.174 1058.289, 502.344 1045.750 L 501.698 1036 496.849 1036 L 492 1036 492 1066.500 M 538 1066.500 L 538 1097 542.874 1097 L 547.749 1097 548.624 1077.298 L 549.500 1057.596 561.298 1077.298 L 573.096 1097 579.048 1097 L 585 1097 584.989 1070.250 C 584.983 1055.537, 584.699 1041.813, 584.358 1039.750 L 583.738 1036 578.369 1036 L 573 1036 573 1055.500 C 573 1066.225, 572.663 1074.988, 572.250 1074.972 C 571.837 1074.957, 566.404 1066.182, 560.176 1055.472 L 548.853 1036 543.426 1036 L 538 1036 538 1066.500 M 611.459 1038.367 C 601.748 1042.889, 596.819 1051.342, 596.220 1064.500 C 595.534 1079.560, 600.482 1089.153, 611.788 1094.685 C 622.003 1099.683, 637.074 1098.075, 646.928 1090.937 L 651 1087.987 651 1076.494 L 651 1065 641.125 1065 C 635.694 1065, 629.844 1064.719, 628.125 1064.375 L 625 1063.750 625 1069.375 L 625 1075 632 1075 L 639 1075 639 1078.977 C 639 1083.795, 636.874 1085.503, 628.759 1087.205 C 618.247 1089.410, 610.261 1083.980, 607.913 1073.032 C 606.602 1066.915, 607.336 1058.184, 609.518 1053.966 C 614.975 1043.412, 631.287 1042.041, 636.961 1051.659 C 638.395 1054.090, 639.534 1054.978, 640.755 1054.619 C 641.715 1054.337, 644.174 1053.810, 646.219 1053.448 L 649.939 1052.789 648.456 1049.144 C 646.461 1044.244, 640.130 1038.407, 635.377 1037.088 C 628.354 1035.138, 617.101 1035.740, 611.459 1038.367 M 661.278 1058.250 C 661.587 1071.068, 662.324 1082.196, 663.017 1084.500 C 665.839 1093.877, 676.184 1098.976, 689.334 1097.472 C 696.208 1096.686, 699.445 1095.320, 702.702 1091.831 C 707.490 1086.704, 708 1083.594, 708 1059.532 L 708 1037 703.154 1037 L 698.307 1037 697.654 1049.157 C 697.294 1055.843, 696.990 1065.181, 696.978 1069.907 C 696.949 1081.396, 694.753 1086.581, 689.498 1087.566 C 683.939 1088.609, 678.049 1086.962, 675.603 1083.680 C 673.636 1081.042, 673.480 1079.405, 673.197 1058.430 L 672.894 1036 666.818 1036 L 660.742 1036 661.278 1058.250 M 718.313 1036.697 C 716.292 1037.090, 716.881 1038.360, 726.063 1053.408 L 736 1069.693 736 1083.346 L 736 1097 742 1097 L 748 1097 748 1083.582 L 748 1070.164 756.075 1057.443 C 760.517 1050.446, 765.247 1042.985, 766.588 1040.861 L 769.025 1037 762.763 1037.018 L 756.500 1037.036 750.794 1046.768 C 741.771 1062.157, 743.416 1062.011, 735.439 1048.132 L 728.500 1036.061 724.500 1036.166 C 722.300 1036.225, 719.516 1036.464, 718.313 1036.697 M 777 1066.500 L 777 1097 798.500 1097 L 820 1097 820 1092 L 820 1087 804 1087 L 788 1087 788 1079.095 L 788 1071.191 803 1070.467 L 818 1069.744 818 1065.399 L 818 1061.055 803.750 1060.777 L 789.500 1060.500 789.208 1052.750 L 788.916 1045 804.458 1045 L 820 1045 820 1040.500 L 820 1036 798.500 1036 L 777 1036 777 1066.500 M 831 1066.500 L 831 1097 836.500 1097 L 842 1097 842 1078.500 C 842 1068.325, 842.337 1060.008, 842.750 1060.017 C 843.163 1060.026, 848.675 1068.335, 855 1078.481 L 866.500 1096.928 872.250 1096.964 L 878 1097 878 1067 L 878 1037 872.521 1037 L 867.042 1037 866.771 1056.750 L 866.500 1076.500 854.167 1056.250 L 841.834 1036 836.417 1036 L 831 1036 831 1066.500 M 454.557 1053.083 C 454.278 1053.862, 452.521 1058.550, 450.655 1063.500 L 447.260 1072.500 454.753 1072.794 C 458.873 1072.956, 462.410 1072.924, 462.611 1072.722 C 463.111 1072.223, 456.952 1053.730, 455.904 1052.583 C 455.410 1052.042, 454.857 1052.248, 454.557 1053.083" stroke="none" fill="#fcf504" fill-rule="evenodd"/><path d="M 563 14.679 C 511.838 18.429, 470.228 26.584, 424.001 41.918 C 366.601 60.959, 310.870 90.082, 263.500 125.789 C 183.890 185.800, 120.674 266.439, 82.248 357 C 22.865 496.951, 23.412 657.117, 83.748 796.500 C 116.297 871.691, 164.966 939.035, 226.601 994.170 C 233.421 1000.270, 239 1005.683, 239 1006.199 C 239 1006.714, 227.245 1034.218, 212.878 1067.318 C 180.279 1142.420, 162 1184.886, 162 1185.515 C 162 1185.782, 358.455 1186, 598.567 1186 L 1035.135 1186 1034.443 1183.750 C 1033.721 1181.404, 1028.370 1168.983, 985.079 1069.173 C 969.088 1032.303, 959.153 1008.196, 959.528 1007.173 C 959.866 1006.253, 964.631 1001.675, 970.118 997 C 985.446 983.939, 1020.073 948.246, 1034 931.152 C 1087.548 865.423, 1124.228 793.217, 1144.506 713.612 C 1152.402 682.614, 1157.342 653.458, 1159.559 624.763 C 1159.931 619.958, 1160.642 616.279, 1161.140 616.587 C 1162.766 617.592, 1161.582 541.420, 1159.693 523.500 C 1149.491 426.736, 1119.827 342.800, 1068.689 266 C 972.733 121.892, 819.320 30.558, 648 15.545 C 632.189 14.159, 577.668 13.604, 563 14.679 M 569 50.694 C 485.216 55.632, 401.509 81.567, 330.241 124.667 C 211.762 196.318, 126.753 309.421, 91.558 442.230 C 85.497 465.100, 80.647 490.861, 77.292 518 C 74.998 536.560, 74.705 608.099, 76.842 628 C 92.158 770.646, 164.328 901.061, 276.250 988.342 C 281.063 992.095, 285 995.746, 285 996.455 C 285 997.588, 273.907 1022.978, 230.926 1120.220 C 224.917 1133.816, 220 1145.628, 220 1146.470 C 220 1147.841, 259.471 1148, 599 1148 C 807.450 1148, 978 1147.803, 978 1147.562 C 978 1147.321, 969.277 1126.958, 958.615 1102.312 C 931.079 1038.657, 914 998.419, 914 997.202 C 914 996.625, 918.163 992.893, 923.250 988.909 C 1011.138 920.072, 1075.644 824.068, 1105.950 717 C 1141.582 591.116, 1128.283 455.051, 1068.956 338.500 C 1043.356 288.207, 1011.832 244.857, 971.500 204.484 C 929.016 161.957, 884.854 130.251, 831.500 103.970 C 769.107 73.236, 703.826 55.633, 635.170 51.028 C 621.216 50.092, 582.525 49.897, 569 50.694 M 568.500 76.034 C 474.614 82.486, 386.724 113.586, 311.682 166.910 C 210.808 238.589, 139.429 344.640, 112.552 462.764 C 102.810 505.579, 99.413 539.616, 100.301 585.500 C 101.135 628.623, 105.284 659.812, 115.464 699.500 C 124.258 733.780, 134.251 760.534, 150.948 794.500 C 182.934 859.567, 225.726 913.878, 281.500 960.195 C 288.650 966.132, 295.011 970.992, 295.635 970.995 C 296.684 971, 301.165 961.609, 312 936.698 C 314.345 931.307, 316.991 926.132, 317.882 925.198 C 319.379 923.627, 323.815 923.538, 376.995 924 L 434.490 924.500 449.567 950.500 L 464.644 976.500 488.692 976.767 L 512.741 977.035 527.443 950.517 L 542.146 924 594.927 924 C 623.956 924, 650.466 924.288, 653.839 924.641 L 659.972 925.282 665.894 936.391 C 680.231 963.286, 688.699 977.499, 690.339 977.417 C 691.253 977.371, 701.807 977.258, 713.792 977.167 L 735.584 977 739.542 970.261 C 741.719 966.555, 748.455 954.597, 754.511 943.688 L 765.522 923.854 823.409 923.875 C 855.247 923.886, 881.615 924.257, 882.006 924.698 C 883.210 926.057, 896.663 957.097, 899.148 964.250 C 900.994 969.561, 901.920 970.999, 903.497 970.995 C 908.724 970.982, 953.976 929.361, 975.885 904.414 C 1040.997 830.275, 1083.115 737.996, 1095.885 641.500 C 1102.266 593.281, 1101.187 536.635, 1092.992 489.500 C 1077.441 400.068, 1037.605 316.946, 976.480 246.386 C 963.574 231.488, 937.379 205.769, 921.987 192.883 C 841.980 125.899, 748.195 86.807, 644 77.011 C 628.146 75.520, 584.241 74.952, 568.500 76.034 M 563.057 108.443 L 555.664 115.885 569.332 130.008 C 576.849 137.775, 583 144.670, 583 145.330 C 583 145.989, 577.256 152.260, 570.236 159.264 C 560.975 168.505, 556.813 172, 555.069 172 C 553.326 172, 548.998 168.369, 539.313 158.778 L 525.960 145.556 518.241 153.275 L 510.522 160.994 523.240 173.747 C 532.204 182.736, 536.128 187.385, 536.533 189.500 C 537.066 192.277, 536.193 193.402, 524.805 204.616 C 518.037 211.280, 511.779 216.978, 510.897 217.278 C 509.797 217.653, 505.574 214.095, 497.454 205.954 C 490.942 199.425, 484.312 193.544, 482.722 192.885 C 479.921 191.725, 479.606 191.911, 472.676 198.841 L 465.522 205.996 480.002 220.502 L 494.483 235.009 479.664 249.754 L 464.845 264.500 451.104 250.250 C 443.547 242.412, 436.931 236, 436.403 236 C 435.874 236, 432.530 238.941, 428.971 242.536 C 424.257 247.296, 422.587 249.673, 422.820 251.286 C 423.018 252.654, 453.766 284.153, 503.267 333.699 C 580.882 411.384, 583.353 413.973, 582.109 416.296 C 581.403 417.615, 572.540 426.971, 562.414 437.086 L 544.003 455.477 529.501 441.001 L 515 426.525 529.159 412.341 L 543.318 398.157 539.064 393.076 C 533.715 386.688, 530.320 384, 527.601 384 C 526.203 384, 521.032 388.449, 512.550 396.950 L 499.629 409.900 496.047 407.200 C 494.077 405.715, 487.376 399.161, 481.155 392.636 L 469.843 380.771 482.172 369.039 C 488.952 362.585, 495.147 356.095, 495.939 354.616 C 497.352 351.973, 497.250 351.799, 489.959 344.459 L 482.541 336.991 471.520 347.765 C 465.459 353.691, 458.834 360.061, 456.797 361.920 L 453.095 365.301 439.161 350.900 L 425.227 336.500 438.613 322.795 C 445.976 315.258, 452 308.496, 452 307.769 C 452 307.041, 448.905 303.375, 445.123 299.622 C 439.303 293.847, 437.958 292.957, 436.373 293.833 C 435.343 294.402, 428.882 300.523, 422.015 307.434 C 415.148 314.345, 409.079 320, 408.528 320 C 407.976 320, 401.110 313.596, 393.269 305.770 L 379.014 291.540 372.030 298.471 L 365.045 305.401 367.636 309.951 C 369.242 312.769, 400.140 344.457, 448.858 393.246 L 527.488 471.992 508.504 490.996 C 493.717 505.799, 488.965 509.989, 487.010 509.950 C 485.184 509.914, 480.854 506.383, 471.127 496.995 L 457.754 484.089 470.627 470.467 C 477.707 462.975, 483.854 455.896, 484.287 454.735 C 484.938 452.989, 483.907 451.449, 478.314 445.813 C 474.596 442.066, 471.140 439, 470.635 439 C 470.130 439, 463.516 445.413, 455.937 453.250 L 442.157 467.500 427.655 453.089 L 413.152 438.678 426.826 424.292 C 434.347 416.381, 440.615 409.582, 440.756 409.185 C 440.897 408.787, 437.656 405.128, 433.553 401.053 L 426.094 393.643 411.421 407.941 L 396.747 422.239 382.124 407.561 L 367.500 392.883 382 379.045 L 396.500 365.206 390.068 358.353 C 386.530 354.584, 383.038 350.836, 382.307 350.025 C 381.164 348.755, 379.129 350.395, 367.726 361.775 C 352.699 376.771, 351.571 377.270, 345.946 371.410 C 344.051 369.436, 338.155 363.801, 332.845 358.888 C 323.884 350.597, 323.014 350.036, 320.731 351.077 C 318.149 352.253, 308 363.192, 308 364.799 C 308 365.312, 346.096 403.479, 392.659 449.616 C 439.221 495.752, 478.596 535.255, 480.159 537.400 L 483 541.300 483 713.127 L 483 884.954 480.500 891.596 C 479.125 895.249, 478 898.410, 478 898.619 C 478 898.829, 484.534 899, 492.519 899 L 507.038 899 506.367 896.250 C 505.997 894.737, 505.089 891.756, 504.348 889.624 C 503.237 886.430, 503 854.231, 503 706.452 L 503 527.155 508.250 522.563 L 513.500 517.970 513.753 701.302 L 514.005 884.634 511.562 891.817 L 509.119 899 523.060 899 C 531.329 899, 537 898.608, 537 898.037 C 537 897.507, 536.100 894.791, 535 892 C 533.024 886.987, 533 884.568, 533 692.179 L 533 497.432 538.281 492.216 C 541.186 489.347, 543.845 487, 544.190 487 C 544.535 487, 544.566 577.338, 544.260 687.750 C 543.733 877.501, 543.604 888.788, 541.905 893.750 L 540.108 899 569.554 899 C 585.749 899, 599 898.854, 599 898.675 C 599 898.496, 597.875 895.043, 596.500 891 L 594 883.650 594.012 659.575 L 594.025 435.500 597.616 433.173 L 601.207 430.846 603.604 433.097 L 606 435.349 606 659.427 C 606 880.508, 605.973 883.600, 604 890.500 C 602.900 894.346, 602 897.833, 602 898.247 C 602 898.661, 615.003 899, 630.895 899 L 659.790 899 657.895 892.911 C 656.061 887.019, 656 880.313, 656 686.195 L 656 485.568 661.500 491 L 667 496.432 667 691.059 C 667 883.083, 666.973 885.765, 665 891.500 C 663.900 894.697, 663 897.693, 663 898.157 C 663 898.620, 669.300 899, 677 899 C 684.700 899, 691 898.854, 691 898.675 C 691 898.496, 689.875 895.043, 688.500 891 L 686 883.650 686 700.825 C 686 600.271, 686.275 518, 686.611 518 C 686.947 518, 689.422 519.842, 692.111 522.093 L 697 526.186 697 706.004 C 697 882.639, 696.965 885.934, 695.013 892.161 C 693.920 895.647, 693.020 898.612, 693.013 898.750 C 693.006 898.888, 699.300 899, 707 899 C 714.754 899, 721 898.594, 721 898.089 C 721 897.588, 720.106 894.326, 719.013 890.839 C 717.063 884.618, 717.026 881.317, 717.013 712.997 L 717 541.495 789.077 469.497 C 828.720 429.899, 868.383 389.925, 877.217 380.666 L 893.280 363.832 886.417 356.916 C 882.642 353.112, 878.905 350, 878.113 350 C 877.320 350, 871.008 355.568, 864.086 362.372 C 857.125 369.215, 850.362 375.011, 848.954 375.340 C 846.720 375.863, 844.820 374.345, 833.468 362.968 C 826.351 355.836, 820.083 350, 819.538 350 C 818.993 350, 815.271 353.254, 811.267 357.231 L 803.987 364.462 818.157 378.657 L 832.327 392.852 818.519 407.426 C 810.925 415.442, 804.233 422, 803.650 422 C 803.066 422, 796.410 415.878, 788.858 408.395 C 781.307 400.913, 774.700 394.950, 774.177 395.145 C 773.654 395.340, 769.981 398.571, 766.015 402.324 L 758.805 409.148 772.903 423.367 C 780.656 431.187, 786.998 438.016, 786.996 438.543 C 786.993 439.069, 780.395 445.791, 772.332 453.481 L 757.673 467.461 743.870 452.981 L 730.066 438.500 722.028 446.482 L 713.990 454.463 726.872 467.482 C 733.957 474.642, 740.024 481.625, 740.354 483 C 740.877 485.180, 739.268 487.190, 727.804 498.686 C 714.916 511.611, 714.603 511.846, 712.077 510.504 C 710.660 509.751, 701.178 500.778, 691.006 490.563 L 672.512 471.992 754.256 390.244 C 799.215 345.282, 836 308.035, 836 307.473 C 836 306.910, 832.622 303.095, 828.494 298.994 L 820.988 291.538 806.731 305.769 C 798.890 313.596, 792.024 320, 791.472 320 C 790.920 320, 785.101 314.619, 778.541 308.041 C 771.981 301.464, 765.288 295.533, 763.667 294.862 C 760.785 293.668, 760.584 293.791, 754.400 300.571 C 750.923 304.382, 748.061 308.019, 748.039 308.653 C 748.018 309.287, 753.877 315.336, 761.060 322.095 C 772.681 333.029, 774.052 334.665, 773.502 336.942 C 772.890 339.472, 748.173 365.247, 746.832 364.754 C 746.452 364.614, 739.660 358.346, 731.738 350.825 L 717.334 337.150 709.669 344.815 L 702.004 352.479 716.239 366.740 L 730.474 381 716.059 395.441 L 701.643 409.883 690.288 398.967 C 684.043 392.963, 677.309 386.812, 675.323 385.297 L 671.714 382.544 664.878 390.022 C 661.119 394.135, 658.146 397.801, 658.272 398.169 C 658.397 398.537, 664.543 405.219, 671.929 413.017 L 685.359 427.196 671.359 441.098 C 663.659 448.744, 656.937 455, 656.420 455 C 655.904 455, 646.485 445.991, 635.491 434.981 L 615.500 414.961 696.250 334.403 C 745.758 285.013, 777.245 252.872, 777.632 251.330 C 778.169 249.191, 777.237 247.781, 771.401 241.900 L 764.539 234.985 749.736 249.743 L 734.932 264.500 720.288 249.691 L 705.644 234.882 719.944 220.556 C 727.809 212.677, 734.076 205.812, 733.872 205.299 C 733.667 204.786, 730.349 201.410, 726.497 197.795 L 719.494 191.224 716.366 193.862 C 714.646 195.313, 707.835 201.566, 701.232 207.757 L 689.226 219.014 675.451 204.466 L 661.676 189.919 674.838 176.627 C 684.839 166.527, 687.971 162.754, 687.879 160.917 C 687.798 159.303, 685.461 156.355, 680.846 152.047 L 673.934 145.593 660.217 159.181 C 646.757 172.514, 646.447 172.746, 643.691 171.560 C 640.629 170.243, 617 147.174, 617 145.502 C 617 144.936, 623.302 138.184, 631.003 130.497 C 638.705 122.810, 644.893 116.211, 644.753 115.834 C 644.614 115.456, 640.900 111.976, 636.500 108.100 L 628.500 101.053 614.250 115.263 L 600 129.474 585.737 115.237 C 577.893 107.407, 571.244 101, 570.962 101 C 570.681 101, 567.123 104.349, 563.057 108.443 M 539.500 221.100 L 480.500 280.212 539.769 339.106 C 572.366 371.498, 599.591 398.001, 600.269 398.002 C 601.940 398.005, 718 281.762, 718 280.085 C 718 278.251, 601.821 162.002, 599.980 161.994 C 599.166 161.990, 571.950 188.588, 539.500 221.100 M 599.761 194.632 C 599.485 195.110, 595.365 207.531, 590.605 222.235 L 581.952 248.970 553.103 249.235 L 524.255 249.500 547.493 266.357 L 570.732 283.215 566.377 296.857 C 563.982 304.361, 560.020 316.566, 557.574 323.979 C 555.127 331.393, 553.296 337.629, 553.504 337.838 C 553.713 338.046, 563.922 330.881, 576.192 321.916 C 588.461 312.951, 599.175 305.610, 600 305.603 C 600.825 305.596, 611.554 312.916, 623.841 321.870 C 636.129 330.824, 646.352 337.982, 646.558 337.776 C 646.764 337.569, 643.093 325.564, 638.399 311.097 C 633.705 296.630, 630.083 284.226, 630.350 283.532 C 630.616 282.837, 640.996 274.896, 653.416 265.885 L 675.998 249.500 647.037 249.235 L 618.077 248.970 615.039 239.235 C 607.547 215.225, 600.221 193.838, 599.761 194.632 M 625.049 669.657 L 625.097 884.500 628.500 891 C 630.372 894.575, 631.925 897.262, 631.951 896.971 C 631.978 896.680, 632.893 890.155, 633.984 882.471 C 635.912 868.900, 635.968 862.723, 635.929 666.500 L 635.889 464.500 630.445 459.657 L 625 454.814 625.049 669.657 M 569.250 462.944 L 564 469.962 564 677.643 C 564 869.485, 564.128 885.731, 565.683 890.662 C 566.608 893.598, 567.621 895.992, 567.933 895.983 C 568.245 895.974, 570.188 892.839, 572.250 889.017 L 576 882.068 575.857 733.284 C 575.778 651.453, 575.441 555.571, 575.107 520.213 L 574.500 455.927 569.250 462.944 M 414.581 585.085 C 407.113 592.933, 399.730 601.328, 375.079 630 C 372.479 633.025, 369.545 636.737, 368.560 638.250 L 366.770 641 406.385 641 L 446 641 446 646.500 C 446 649.525, 445.887 652.066, 445.750 652.146 C 445.613 652.226, 425.494 652.564, 401.042 652.896 L 356.584 653.500 351.898 659.319 C 347.496 664.785, 323.116 698.112, 316.287 708 C 314.577 710.475, 312.883 713.513, 312.522 714.750 L 311.865 717 378.933 717 L 446 717 446 723 L 446 729 374.250 729.005 L 302.500 729.010 294.922 740.755 C 281.753 761.164, 263.675 792.008, 264.435 792.769 C 264.837 793.171, 305.835 793.620, 355.541 793.766 L 445.915 794.031 446.553 797.429 C 446.903 799.297, 446.892 801.765, 446.528 802.913 L 445.865 805 357.079 805 C 308.247 805, 265.561 805.286, 262.222 805.635 L 256.151 806.269 248.111 823.444 C 238.119 844.789, 228 870.933, 228 875.404 C 228 875.732, 281.100 876, 346 876 L 464 876 464 867.648 L 464 859.296 455.750 858.654 C 451.212 858.301, 403.738 858.009, 350.250 858.006 C 296.762 858.003, 253 857.802, 253 857.560 C 253 855.756, 259.133 840.745, 263.136 832.750 L 268.018 823 366.009 823 L 464 823 464 799.500 L 464 776 378.905 776 L 293.809 776 297.051 770.250 C 298.834 767.087, 302.938 760.563, 306.172 755.750 L 312.052 747 388.026 747 L 464 747 464 723.639 L 464 700.279 459.250 699.822 C 456.637 699.571, 429.863 699.470, 399.750 699.598 C 369.637 699.726, 345 699.470, 345 699.029 C 345 698.589, 347.726 694.464, 351.057 689.864 C 354.388 685.264, 358.776 679.172, 360.807 676.328 C 362.838 673.483, 365.175 670.972, 366 670.748 C 366.825 670.524, 386.400 670.523, 409.500 670.746 C 432.600 670.968, 454.313 670.856, 457.750 670.496 L 464 669.841 464 646.420 L 464 623 435 623 C 413.972 623, 406 622.687, 406 621.861 C 406 620.586, 414.154 610.967, 423.893 600.750 L 430.328 594 447.164 594 L 464 594 464 585 L 464 576 443.614 576 L 423.227 576 414.581 585.085 M 736 585 L 736 594 753.250 594.011 L 770.500 594.023 782.750 607.523 C 789.487 614.948, 795 621.468, 795 622.012 C 795 622.640, 784.269 623, 765.500 623 L 736 623 736 646.392 L 736 669.783 738.671 670.454 C 740.140 670.822, 762.441 671.032, 788.229 670.920 C 814.727 670.805, 835.459 671.104, 835.905 671.608 C 840.297 676.577, 855 697.458, 855 698.727 C 855 699.204, 828.831 699.650, 796.750 699.719 C 764.712 699.789, 737.938 699.880, 737.250 699.923 C 736.288 699.982, 736 705.308, 736 723 L 736 746 812.250 746.032 L 888.500 746.063 891.403 750.782 C 902.317 768.523, 905.172 773.285, 905.661 774.558 C 906.140 775.807, 894.826 776, 821.107 776 L 736 776 736 798.941 C 736 813.505, 736.374 822.113, 737.023 822.514 C 737.586 822.862, 781.574 823.112, 834.773 823.069 C 887.973 823.027, 931.994 823.331, 932.598 823.746 C 933.535 824.389, 948 856.092, 948 857.503 C 948 857.776, 904.419 858, 851.154 858 C 797.888 858, 750.188 858.292, 745.154 858.650 L 736 859.299 736 867.650 L 736 876 854.500 876 C 919.675 876, 973 875.819, 973 875.597 C 973 875.375, 971.386 870.538, 969.413 864.847 C 965.043 852.240, 955.677 830.172, 948.682 816 L 943.500 805.500 848.750 805.245 L 754 804.990 754 799.495 L 754 794 844.500 794 C 934.922 794, 935 793.998, 935 791.960 C 935 790.838, 934.065 788.087, 932.922 785.846 C 930.905 781.893, 910.357 747.833, 902.425 735.295 L 898.500 729.090 826.250 729.045 L 754 729 754 723 L 754 717 821.500 717 C 858.625 717, 889 716.620, 889 716.156 C 889 714.932, 876.655 697.542, 859.075 674 L 843.766 653.500 798.965 653 C 774.325 652.725, 753.988 652.275, 753.772 652 C 753.555 651.725, 753.562 649.138, 753.786 646.250 L 754.193 641 793.597 641 C 816.532 641, 833 640.621, 833 640.092 C 833 638.278, 800.771 600.932, 784.809 584.250 L 776.915 576 756.458 576 L 736 576 736 585 M 325.808 968.250 C 321.592 978.288, 305.285 1016.593, 289.571 1053.373 C 273.857 1090.154, 261 1120.641, 261 1121.123 C 261 1121.624, 406.480 1122, 600 1122 C 786.450 1122, 939 1121.752, 939 1121.449 C 939 1120.555, 932.329 1105.066, 903.490 1039 C 888.485 1004.625, 873.750 970.650, 870.745 963.500 L 865.282 950.500 823.891 950.242 L 782.500 949.984 767.909 976.242 L 753.319 1002.500 712.285 1002.761 L 671.252 1003.022 656.534 976.511 L 641.816 950 600.519 950 L 559.221 950 544.509 976.500 L 529.797 1003 488.149 1002.972 L 446.500 1002.943 432 976.500 L 417.500 950.057 375.488 950.028 L 333.475 950 325.808 968.250 M 452.231 1023.877 C 450.454 1027.109, 449 1030.034, 449 1030.377 C 449 1030.720, 450.299 1031, 451.886 1031 C 454.061 1031, 456.464 1029.409, 461.636 1024.543 L 468.500 1018.086 461.981 1018.043 L 455.462 1018 452.231 1023.877 M 790.387 1024.250 L 785.778 1030.500 789.887 1030.807 C 793.353 1031.067, 794.375 1030.675, 796.410 1028.310 L 798.823 1025.505 800.984 1028.252 C 802.760 1030.510, 803.935 1031, 807.573 1031 C 810.008 1031, 812 1030.724, 812 1030.386 C 812 1030.048, 809.705 1027.123, 806.901 1023.886 C 802.544 1018.857, 801.307 1018, 798.399 1018 C 795.383 1018, 794.472 1018.711, 790.387 1024.250 M 576.363 1035.695 L 573.227 1036.110 572.496 1055.100 L 571.765 1074.090 560.637 1055.045 L 549.508 1036 543.858 1036 L 538.208 1036 537.537 1050.250 C 537.168 1058.088, 537.008 1071.925, 537.183 1081 L 537.500 1097.500 543 1097.500 L 548.500 1097.500 549 1078.022 L 549.500 1058.545 561.099 1078.022 L 572.699 1097.500 578.864 1097.798 L 585.029 1098.096 584.764 1066.798 L 584.500 1035.500 582 1035.390 C 580.625 1035.329, 578.089 1035.466, 576.363 1035.695 M 616.340 1035.958 C 599.241 1040.032, 590.304 1061.414, 597.763 1080.403 C 600.393 1087.097, 603.846 1091.046, 610.101 1094.510 C 615.086 1097.271, 616.267 1097.500, 625.500 1097.500 C 634.199 1097.500, 636.216 1097.161, 641 1094.896 C 650.789 1090.260, 650.819 1090.207, 651.182 1076.500 L 651.500 1064.500 638.250 1064.221 L 625 1063.942 625 1069.471 L 625 1075 632 1075 L 639 1075 639 1078.911 C 639 1082.532, 638.680 1082.976, 634.684 1084.911 C 629.541 1087.400, 621.213 1087.678, 617.002 1085.501 C 615.408 1084.677, 612.843 1082.350, 611.302 1080.331 C 608.810 1077.066, 608.461 1075.678, 608.149 1067.782 C 607.930 1062.259, 608.260 1057.786, 609.022 1055.947 C 610.688 1051.925, 616.128 1047.342, 620.951 1045.897 C 626.475 1044.241, 633.379 1046.833, 636.205 1051.623 C 637.301 1053.481, 638.941 1054.989, 639.849 1054.976 C 642.052 1054.944, 649.028 1053.306, 649.663 1052.671 C 650.639 1051.695, 646.225 1043.467, 643.207 1040.637 C 638.343 1036.075, 625.346 1033.812, 616.340 1035.958 M 318.197 1041.232 L 318.500 1046.500 327.391 1046.791 L 336.282 1047.082 335.891 1072.291 L 335.500 1097.500 341.250 1097.800 L 347 1098.100 347.006 1080.800 C 347.009 1071.285, 347.300 1059.804, 347.651 1055.287 L 348.291 1047.074 356.895 1046.787 L 365.500 1046.500 365.500 1041.500 L 365.500 1036.500 341.697 1036.232 L 317.894 1035.964 318.197 1041.232 M 372.236 1066.750 L 372.500 1097.500 378 1097.500 L 383.500 1097.500 383.779 1084.250 L 384.058 1071 395.529 1071 L 407 1071 407.006 1076.250 C 407.009 1079.138, 407.303 1085.234, 407.658 1089.797 L 408.304 1098.094 413.402 1097.797 L 418.500 1097.500 418.764 1066.750 L 419.029 1036 413.014 1036 L 407 1036 407 1048 L 407 1060 395.500 1060 L 384 1060 384 1048 L 384 1036 377.986 1036 L 371.971 1036 372.236 1066.750 M 448.673 1036.719 C 447.304 1038.935, 427.975 1091.618, 427.393 1094.721 L 426.719 1098.310 431.499 1097.655 C 434.128 1097.295, 436.855 1097, 437.558 1097 C 438.261 1097, 439.810 1094.075, 441 1090.500 L 443.163 1084 455.332 1084.012 L 467.500 1084.025 470.329 1091.012 L 473.157 1098 478.690 1098 L 484.223 1098 483.533 1094.250 C 482.815 1090.350, 475.896 1071.853, 466.793 1049.500 L 461.499 1036.500 455.336 1036.205 C 451.947 1036.042, 448.949 1036.274, 448.673 1036.719 M 492 1067.052 L 492 1098.105 497.250 1097.802 L 502.500 1097.500 502.764 1066.750 L 503.029 1036 497.514 1036 L 492 1036 492 1067.052 M 660.009 1046.250 C 660.014 1051.888, 660.471 1062.786, 661.025 1070.470 C 662.182 1086.516, 663.431 1089.913, 669.843 1094.442 C 673.525 1097.043, 675.037 1097.434, 682.885 1097.809 C 696.051 1098.438, 701.898 1095.897, 706.250 1087.655 C 708.326 1083.724, 708.446 1082.235, 708.472 1060 L 708.500 1036.500 702.835 1036.203 L 697.170 1035.905 696.835 1057.703 C 696.530 1077.528, 696.314 1079.817, 694.448 1083 C 692.476 1086.365, 692.147 1086.511, 685.911 1086.791 C 680.126 1087.050, 679.177 1086.818, 677.129 1084.637 C 673.693 1080.980, 673.050 1076.375, 673.024 1055.250 L 673 1036 666.500 1036 L 660 1036 660.009 1046.250 M 716.195 1038.250 C 716.978 1039.487, 721.755 1047.300, 726.810 1055.611 L 736 1070.721 736 1084.408 L 736 1098.095 742.250 1097.798 L 748.500 1097.500 749 1083 L 749.500 1068.500 759.732 1052.500 L 769.964 1036.500 766.276 1036.177 C 757.651 1035.423, 756.651 1036.131, 749.435 1048.108 C 743.507 1057.946, 742.653 1058.944, 741.544 1057.321 C 740.861 1056.319, 737.732 1051.112, 734.592 1045.750 L 728.883 1036 721.827 1036 L 714.770 1036 716.195 1038.250 M 776.236 1066.750 L 776.500 1097.500 797.928 1097.770 C 814.404 1097.978, 819.543 1097.747, 820.163 1096.770 C 820.607 1096.072, 820.976 1093.588, 820.985 1091.250 L 821 1087 805 1087 L 789 1087 789 1079.027 L 789 1071.053 803.750 1070.777 L 818.500 1070.500 818.500 1065.500 L 818.500 1060.500 803.750 1060.223 L 789 1059.947 789 1052.558 L 789 1045.170 804.351 1045.730 C 815.606 1046.141, 819.897 1045.975, 820.433 1045.109 C 820.835 1044.458, 820.862 1042.143, 820.494 1039.963 L 819.824 1036 797.898 1036 L 775.971 1036 776.236 1066.750 M 830.236 1066.750 L 830.500 1097.500 836.728 1097.797 L 842.956 1098.094 843.228 1079.650 L 843.500 1061.207 853.913 1077.853 C 859.640 1087.009, 864.997 1095.287, 865.818 1096.250 C 866.894 1097.512, 868.800 1098, 872.655 1098 L 878 1098 878 1067 L 878 1036 872.521 1036 L 867.042 1036 866.771 1055.750 L 866.500 1075.500 854.613 1055.750 L 842.726 1036 836.349 1036 L 829.971 1036 830.236 1066.750 M 454.169 1055.718 C 452.275 1060.509, 448 1072.220, 448 1072.619 C 448 1072.829, 451.367 1073, 455.482 1073 L 462.964 1073 459.455 1063.306 C 457.525 1057.975, 455.794 1053.461, 455.608 1053.274 C 455.422 1053.088, 454.774 1054.188, 454.169 1055.718" stroke="none" fill="#da251c" fill-rule="evenodd"/></svg>