<svg width="80" height="80" viewBox="0 0 80 80" fill="none" xmlns="http://www.w3.org/2000/svg">
<rect width="80" height="80" rx="4" fill="#AA3181"/>
<path d="M52.415 33.1709L46.8288 27.5859C46.643 27.4002 46.4225 27.2528 46.1799 27.1523C45.9372 27.0517 45.6771 27 45.4144 27C45.1517 27 44.8916 27.0517 44.6489 27.1523C44.4062 27.2528 44.1857 27.4002 44 27.5859L28.5863 42.9997C28.3997 43.1847 28.2519 43.405 28.1512 43.6477C28.0506 43.8904 27.9992 44.1507 28 44.4134V49.9997C28 50.5301 28.2107 51.0388 28.5858 51.4139C28.9609 51.789 29.4696 51.9997 30 51.9997H51C51.2652 51.9997 51.5196 51.8943 51.7071 51.7068C51.8947 51.5193 52 51.2649 52 50.9997C52 50.7345 51.8947 50.4801 51.7071 50.2926C51.5196 50.1051 51.2652 49.9997 51 49.9997H38.415L52.415 35.9997C52.6008 35.814 52.7481 35.5935 52.8487 35.3508C52.9492 35.1081 53.001 34.848 53.001 34.5853C53.001 34.3226 52.9492 34.0625 52.8487 33.8198C52.7481 33.5772 52.6008 33.3567 52.415 33.1709ZM48 37.5859L42.415 31.9997L45.415 28.9997L51 34.5859L48 37.5859Z" fill="white"/>
</svg>
